# xmcd CD database file
#
# Track frame offsets:
#	150
#	10597
#	24173
#	51023
#	76389
#	106715
#	144761
#	157670
#	208245
#	227126
#	265868
#
# Disc length: 3791 seconds
#
# Revision: 0
# Processed by: cddbd v1.5.2PL0 Copyright (c) Steve Scherf et al.
# Submitted via: CDex 1.51
#
DISCID=750ecd0b
DTITLE=Mats Öberg trio - So very Mats
DYEAR=2010
DGENRE=Jazz
TTITLE0=Child intro/ Nine and fine
TTITLE1=Lill.Ossian
TTITLE2=Hermeto´s cheese
TTITLE3=Patrik
TTITLE4=Årsta-skräcken
TTITLE5=Furuvägen 9
TTITLE6=Darksoft
TTITLE7=Lullaby of nerdland
TTITLE8=Tandem days
TTITLE9=Lost in Litauen
TTITLE10=Lost in who knows what
EXTD=YEAR: 2010
EXTT0=
EXTT1=
EXTT2=
EXTT3=
EXTT4=
EXTT5=
EXTT6=
EXTT7=
EXTT8=
EXTT9=
EXTT10=
PLAYORDER=
